<?xml version="1.0" encoding="iso-8859-1"?>
<!-- Generator: Adobe Illustrator 19.0.0, SVG Export Plug-In . SVG Version: 6.00 Build 0)  -->
<svg version="1.1" id="Layer_1" xmlns="http://www.w3.org/2000/svg" xmlns:xlink="http://www.w3.org/1999/xlink" x="0px" y="0px"
	 viewBox="0 0 512 512" style="enable-background:new 0 0 512 512;" xml:space="preserve">
<path style="fill:#2D527C;" d="M297.18,298.347h-82.363c-50.785,0-78.393-71.183-87.905-101.788l-0.379-1.226
	c-7.7-24.725-22.047-70.794,19.302-112.145c13.785-13.782,30.277-20.771,49.019-20.771c16.295,0,31.436,5.349,43.603,9.647
	c6.432,2.271,13.678,4.829,17.543,5.129c3.863-0.3,11.106-2.857,17.525-5.122c12.184-4.304,27.324-9.652,43.62-9.652
	c18.743,0,35.235,6.988,49.017,20.77c41.354,41.351,27.005,87.422,19.298,112.174l-0.379,1.216
	c-2.217,7.128-6.003,18.235-11.425,30.571c-3.252,7.399-11.887,10.76-19.284,7.509c-7.399-3.252-10.762-11.886-7.509-19.284
	c4.873-11.088,8.277-21.074,10.274-27.5l0.38-1.22c7.086-22.753,16.794-53.926-12.049-82.769
	c-8.324-8.322-17.322-12.199-28.322-12.199c-11.277,0-22.754,4.055-33.854,7.975c-9.557,3.375-18.563,6.554-26.837,6.811
	c-0.303,0.01-0.606,0.01-0.909,0c-8.275-0.258-17.285-3.439-26.825-6.806c-11.113-3.926-22.592-7.98-33.868-7.98
	c-11,0-20,3.876-28.324,12.199c-28.84,28.842-19.134,60.012-12.045,82.772l0.382,1.234c11.64,37.444,34.328,81.19,59.952,81.19
	h82.363c8.082,0,14.634,6.552,14.634,14.634S305.262,298.347,297.18,298.347z"/>
<path style="fill:#CEE8FA;" d="M245.795,27.7c18.573,18.573,11.9,55.36,11.9,55.36s-36.786,6.673-55.36-11.9s-11.9-55.36-11.9-55.36
	S227.222,9.127,245.795,27.7z"/>
<path style="fill:#2D527C;" d="M242.422,98.862c-15.092,0-36.093-3.012-50.434-17.353c-23.319-23.32-16.773-63.783-15.951-68.321
	c1.089-6.003,5.786-10.699,11.788-11.788c0.79-0.142,8.012-1.4,17.884-1.4c15.092,0,36.093,3.012,50.434,17.353
	c23.319,23.32,16.773,63.783,15.951,68.321c-1.089,6.001-5.786,10.699-11.788,11.786C259.516,97.603,252.294,98.862,242.422,98.862z
	 M203.929,29.287c-0.167,10.348,1.411,24.184,8.754,31.527c7.639,7.639,21.911,8.78,29.739,8.78c0.607,0,1.201-0.006,1.779-0.019
	c0.167-10.348-1.411-24.184-8.754-31.527c-7.639-7.64-21.911-8.78-29.739-8.78C205.101,29.268,204.507,29.273,203.929,29.287z"/>
<path style="fill:#CEE8FA;" d="M454.176,400.783H102.344c-32.328,0-58.535-26.208-58.535-58.535l0,0
	c0-32.328,26.208-58.535,58.535-58.535h351.832c7.74,0,14.013,6.274,14.013,14.013v89.044
	C468.189,394.508,461.916,400.783,454.176,400.783z"/>
<g>
	<path style="fill:#2D527C;" d="M454.176,415.417H102.344c-40.345,0-73.169-32.824-73.169-73.169s32.824-73.169,73.169-73.169
		h351.832c15.796,0,28.647,12.851,28.647,28.647v89.044C482.823,402.565,469.973,415.417,454.176,415.417z M102.344,298.347
		c-24.207,0-43.901,19.694-43.901,43.901s19.694,43.901,43.901,43.901h351.211v-87.803H102.344V298.347z"/>
	<path style="fill:#2D527C;" d="M475.218,512H71.059c-34.697,0-62.925-28.229-62.925-62.925s28.229-62.925,62.925-62.925h379.279
		c8.082,0,14.634,6.552,14.634,14.634s-6.552,14.634-14.634,14.634H71.059c-18.559,0-33.658,15.099-33.658,33.658
		s15.099,33.658,33.658,33.658h403.539v-26.495c0-8.082,6.552-14.634,14.634-14.634s14.634,6.552,14.634,14.634v27.116
		C503.865,499.149,491.013,512,475.218,512z"/>
	<path style="fill:#2D527C;" d="M404.532,356.882H302.095c-8.082,0-14.634-6.552-14.634-14.634s6.552-14.634,14.634-14.634h102.437
		c8.082,0,14.634,6.552,14.634,14.634C419.166,350.33,412.614,356.882,404.532,356.882z"/>
	<path style="fill:#2D527C;" d="M404.532,463.708H302.095c-8.082,0-14.634-6.552-14.634-14.634s6.552-14.634,14.634-14.634h102.437
		c8.082,0,14.634,6.552,14.634,14.634C419.166,457.157,412.614,463.708,404.532,463.708z"/>
</g>
<g>
</g>
<g>
</g>
<g>
</g>
<g>
</g>
<g>
</g>
<g>
</g>
<g>
</g>
<g>
</g>
<g>
</g>
<g>
</g>
<g>
</g>
<g>
</g>
<g>
</g>
<g>
</g>
<g>
</g>
</svg>
